<svg id="Layer_1" data-name="Layer 1" xmlns="http://www.w3.org/2000/svg" viewBox="0 0 298.70404 52"><defs><style>.cls-1{fill:#231f20;}.cls-2{fill:none;}.cls-3{fill:#ffce00;}.cls-4{fill:#eb008b;}.cls-5{fill:#00adee;}</style></defs><path class="cls-1" d="M85.88153,14.60085v27.1665H80.42645V39.49684a7.532,7.532,0,0,1-6.15088,2.56348,10.22487,10.22487,0,0,1-5.03418-1.24512,8.9029,8.9029,0,0,1-3.5332-3.55175,10.81532,10.81532,0,0,1-1.28174-5.34473,10.81776,10.81776,0,0,1,1.28174-5.3457,8.91089,8.91089,0,0,1,3.5332-3.55127,10.23014,10.23014,0,0,1,5.03418-1.24512,7.49385,7.49385,0,0,1,5.89453,2.37988V14.60085ZM78.85223,35.8904A5.48366,5.48366,0,0,0,80.28,31.91872a5.48607,5.48607,0,0,0-1.42773-3.97266,5.12682,5.12682,0,0,0-7.21289,0,5.48608,5.48608,0,0,0-1.42774,3.97266,5.48367,5.48367,0,0,0,1.42774,3.97168,5.12562,5.12562,0,0,0,7.21289,0Z" transform="translate(-4.65454 -1.97101)"/><path class="cls-1" d="M90.71453,18.40847a3.10014,3.10014,0,0,1,0-4.54,3.62315,3.62315,0,0,1,2.5625-.91553,3.713,3.713,0,0,1,2.563.87891,2.817,2.817,0,0,1,.98877,2.19677A3.10737,3.10737,0,0,1,95.84,18.38991a3.58015,3.58015,0,0,1-2.563.9336A3.62071,3.62071,0,0,1,90.71453,18.40847Zm-.293,3.66113H96.133V41.76735H90.42157Z" transform="translate(-4.65454 -1.97101)"/><path class="cls-1" d="M108.9284,22.509a10.2654,10.2654,0,0,1,4.00928-.73242v5.27246q-.95216-.07324-1.28125-.07324a5.23533,5.23533,0,0,0-3.84473,1.373,5.54564,5.54564,0,0,0-1.39111,4.11865v9.2998h-5.71143V22.0696h5.45508v2.59961A6.35326,6.35326,0,0,1,108.9284,22.509Z" transform="translate(-4.65454 -1.97101)"/><path class="cls-1" d="M134.61346,33.52907H119.71112a4.64089,4.64089,0,0,0,1.90429,2.89258,6.30412,6.30412,0,0,0,3.73438,1.06152,7.58153,7.58153,0,0,0,2.72851-.457,6.61687,6.61687,0,0,0,2.21485-1.44629l3.03906,3.29492q-2.7832,3.18457-8.12891,3.18555a12.86349,12.86349,0,0,1-5.89453-1.2998,9.5232,9.5232,0,0,1-3.9541-3.60645,9.93173,9.93173,0,0,1-1.3916-5.23535,10.07119,10.07119,0,0,1,1.373-5.21777,9.62381,9.62381,0,0,1,3.77148-3.62452,11.67448,11.67448,0,0,1,10.59961-.05468,9.10866,9.10866,0,0,1,3.67969,3.56982,10.64716,10.64716,0,0,1,1.33594,5.40039Q134.72284,32.10182,134.61346,33.52907Zm-13.36328-6.33349a4.67568,4.67568,0,0,0-1.61133,3.00146H129.34a4.73116,4.73116,0,0,0-1.60937-2.9834,4.81848,4.81848,0,0,0-3.22266-1.1167A4.91054,4.91054,0,0,0,121.25018,27.19558Z" transform="translate(-4.65454 -1.97101)"/><path class="cls-1" d="M141.66131,40.76052a9.72922,9.72922,0,0,1-3.918-3.60645,10.43062,10.43062,0,0,1,0-10.47119,9.72922,9.72922,0,0,1,3.918-3.60645,12.108,12.108,0,0,1,5.65625-1.2998,10.96877,10.96877,0,0,1,5.4375,1.2998,7.71638,7.71638,0,0,1,3.38672,3.71631l-4.43066,2.37989a4.84278,4.84278,0,0,0-4.42969-2.70948,5.01437,5.01437,0,0,0-3.69824,1.46436,5.39256,5.39256,0,0,0-1.46485,3.99121,5.39021,5.39021,0,0,0,1.46485,3.99023,5.011,5.011,0,0,0,3.69824,1.46485,4.79232,4.79232,0,0,0,4.42969-2.71l4.43066,2.417a7.86881,7.86881,0,0,1-3.38672,3.66113,10.84143,10.84143,0,0,1-5.4375,1.31836A12.108,12.108,0,0,1,141.66131,40.76052Z" transform="translate(-4.65454 -1.97101)"/><path class="cls-1" d="M171.70135,40.8152a5.86348,5.86348,0,0,1-2.06836.9336,10.4871,10.4871,0,0,1-2.58105.31152,7.66725,7.66725,0,0,1-5.4375-1.79394,6.8658,6.8658,0,0,1-1.92188-5.27246V26.90261H156.6535V22.509h3.03906V17.71267h5.71094V22.509h4.90625v4.39356H165.4035v8.01806a2.685,2.685,0,0,0,.6416,1.92188,2.37,2.37,0,0,0,1.81152.67773,3.67012,3.67012,0,0,0,2.30664-.73242Z" transform="translate(-4.65454 -1.97101)"/><path class="cls-1" d="M190.83123,23.03981a9.07552,9.07552,0,0,1,3.53321,3.55176,10.71812,10.71812,0,0,1,1.28125,5.32715,10.72073,10.72073,0,0,1-1.28125,5.32715,9.06981,9.06981,0,0,1-3.53321,3.55078,10.03043,10.03043,0,0,1-4.99707,1.26367,7.60663,7.60663,0,0,1-5.93164-2.37988v9.18945h-5.71191V22.0696h5.45605v2.27a7.57543,7.57543,0,0,1,6.1875-2.563A10.04034,10.04034,0,0,1,190.83123,23.03981ZM188.45135,35.8904a5.52592,5.52592,0,0,0,1.41016-3.97168,5.52837,5.52837,0,0,0-1.41016-3.97266,5.12571,5.12571,0,0,0-7.21191,0,5.52415,5.52415,0,0,0-1.41016,3.97266,5.52171,5.52171,0,0,0,1.41016,3.97168,5.12451,5.12451,0,0,0,7.21191,0Z" transform="translate(-4.65454 -1.97101)"/><path class="cls-1" d="M206.94061,22.509a10.26786,10.26786,0,0,1,4.00976-.73242v5.27246q-.95361-.07324-1.28222-.07324a5.23291,5.23291,0,0,0-3.84375,1.373,5.54574,5.54574,0,0,0-1.3916,4.11865v9.2998h-5.71192V22.0696h5.45606v2.59961A6.349,6.349,0,0,1,206.94061,22.509Z" transform="translate(-4.65454 -1.97101)"/><path class="cls-1" d="M213.91522,18.40847a3.10119,3.10119,0,0,1,0-4.54,3.62557,3.62557,0,0,1,2.56347-.91553,3.71345,3.71345,0,0,1,2.5625.87891,2.81659,2.81659,0,0,1,.98829,2.19677,3.107,3.107,0,0,1-.98829,2.36133,3.58056,3.58056,0,0,1-2.5625.9336A3.62313,3.62313,0,0,1,213.91522,18.40847Zm-.293,3.66113h5.71191V41.76735h-5.71191Z" transform="translate(-4.65454 -1.97101)"/><path class="cls-1" d="M241.79608,23.97341q2.25146,2.19726,2.252,6.5166V41.76735h-5.71191V31.36892a5.13422,5.13422,0,0,0-1.02539-3.4961,3.75929,3.75929,0,0,0-2.96582-1.15332,4.54579,4.54579,0,0,0-3.44141,1.33643,5.53138,5.53138,0,0,0-1.28125,3.97216v9.73926h-5.71191V22.0696h5.45605v2.30664a7.58124,7.58124,0,0,1,2.81836-1.92236,9.83152,9.83152,0,0,1,3.69824-.67725A8.10746,8.10746,0,0,1,241.79608,23.97341Z" transform="translate(-4.65454 -1.97101)"/><path class="cls-1" d="M261.18182,40.8152a5.86348,5.86348,0,0,1-2.06836.9336,10.4871,10.4871,0,0,1-2.581.31152,7.66725,7.66725,0,0,1-5.4375-1.79394,6.8658,6.8658,0,0,1-1.92188-5.27246V26.90261H246.134V22.509H249.173V17.71267H254.884V22.509h4.90625v4.39356H254.884v8.01806a2.685,2.685,0,0,0,.6416,1.92188,2.37,2.37,0,0,0,1.81152.67773,3.67012,3.67012,0,0,0,2.30664-.73242Z" transform="translate(-4.65454 -1.97101)"/><path class="cls-1" d="M263.67108,41.03493a3.47655,3.47655,0,0,1-1.02442-2.5625,3.34083,3.34083,0,0,1,1.02442-2.54492,3.77294,3.77294,0,0,1,5.05273,0,3.34153,3.34153,0,0,1,1.02539,2.54492,3.47734,3.47734,0,0,1-1.02539,2.5625,3.62494,3.62494,0,0,1-5.05273,0Z" transform="translate(-4.65454 -1.97101)"/><path class="cls-1" d="M273.18963,18.40847a3.10119,3.10119,0,0,1,0-4.54,3.62558,3.62558,0,0,1,2.56348-.91553,3.71345,3.71345,0,0,1,2.5625.87891,2.81658,2.81658,0,0,1,.98828,2.19677,3.107,3.107,0,0,1-.98828,2.36133,3.58056,3.58056,0,0,1-2.5625.9336A3.62314,3.62314,0,0,1,273.18963,18.40847Zm-.293,3.66113h5.71192V41.76735h-5.71192Z" transform="translate(-4.65454 -1.97101)"/><path class="cls-1" d="M286.97479,40.76052a9.6686,9.6686,0,0,1-3.86328-3.60645,9.9355,9.9355,0,0,1-1.39063-5.23535,9.93358,9.93358,0,0,1,1.39063-5.23584,9.6686,9.6686,0,0,1,3.86328-3.60645,12.60245,12.60245,0,0,1,11.14844,0,9.70783,9.70783,0,0,1,3.84472,3.60645,9.9426,9.9426,0,0,1,1.39063,5.23584,9.94452,9.94452,0,0,1-1.39063,5.23535,9.70783,9.70783,0,0,1-3.84472,3.60645,12.60245,12.60245,0,0,1-11.14844,0Zm9.18945-4.87012a5.52592,5.52592,0,0,0,1.41016-3.97168,5.52837,5.52837,0,0,0-1.41016-3.97266,4.75572,4.75572,0,0,0-3.60644-1.48291,4.8138,4.8138,0,0,0-3.624,1.48291,5.48456,5.48456,0,0,0-1.42871,3.97266,5.48215,5.48215,0,0,0,1.42871,3.97168,4.8124,4.8124,0,0,0,3.624,1.4834A4.75436,4.75436,0,0,0,296.16424,35.8904Z" transform="translate(-4.65454 -1.97101)"/><path class="cls-2" d="M32.96765,13.7547c-.10626.133-.209.26862-.31317.40338C32.75861,14.02332,32.86139,13.88763,32.96765,13.7547Z" transform="translate(-4.65454 -1.97101)"/><path class="cls-2" d="M39.39612,21.32312c.16119.38977.30835.78656.4541,1.18408C39.70447,22.10962,39.55731,21.713,39.39612,21.32312Z" transform="translate(-4.65454 -1.97101)"/><path class="cls-2" d="M38.42957,19.2276q.39468.78434.746,1.59332Q38.82423,20.012,38.42957,19.2276Z" transform="translate(-4.65454 -1.97101)"/><path class="cls-2" d="M31.94788,15.10449c-.05909.08277-.11921.16455-.17749.24787C31.82867,15.269,31.88879,15.18713,31.94788,15.10449Z" transform="translate(-4.65454 -1.97101)"/><path class="cls-2" d="M36.00977,15.1908q.48192.67941.92639,1.386Q36.4902,15.87135,36.00977,15.1908Z" transform="translate(-4.65454 -1.97101)"/><path class="cls-2" d="M35.02,13.86652c.11371.14361.22027.29309.33148.43872C35.24017,14.15955,35.13367,14.01019,35.02,13.86652Z" transform="translate(-4.65454 -1.97101)"/><path class="cls-2" d="M37.06714,16.77533c.38611.62122.74414,1.26123,1.08685,1.91046C37.81122,18.0365,37.45331,17.39655,37.06714,16.77533Z" transform="translate(-4.65454 -1.97101)"/><path class="cls-2" d="M30.90546,16.65314c-.07007.11151-.13379.22729-.2024.33972C30.77173,16.88043,30.83539,16.76471,30.90546,16.65314Z" transform="translate(-4.65454 -1.97101)"/><path class="cls-2" d="M30.07562,18.05865c-.13025.23371-.25042.47345-.37481.71082C29.8252,18.53217,29.94537,18.29236,30.07562,18.05865Z" transform="translate(-4.65454 -1.97101)"/><path class="cls-2" d="M28.47668,21.37366c-.24.58331-.45965,1.17694-.66485,1.7774C28.017,22.5506,28.23676,21.957,28.47668,21.37366Z" transform="translate(-4.65454 -1.97101)"/><path class="cls-2" d="M40.63232,24.90192c-.1698-.613-.36035-1.21711-.56585-1.81427C40.272,23.68481,40.46252,24.28894,40.63232,24.90192Z" transform="translate(-4.65454 -1.97101)"/><path class="cls-2" d="M29.293,19.55841c-.2757.56464-.53778,1.137-.77991,1.72009C28.75525,20.69543,29.01727,20.12292,29.293,19.55841Z" transform="translate(-4.65454 -1.97101)"/><path class="cls-3" d="M27.36371,24.54944Q26.958,25.949,26.6792,27.39935A31.24537,31.24537,0,0,0,33.94794,53.971a31.48152,31.48152,0,0,0,3.26349-4.42444,31.28244,31.28244,0,0,0,4.26886-20.5459,31.49143,31.49143,0,0,0-.848-4.09875,31.44818,31.44818,0,0,1-5.81482.54773A31.36219,31.36219,0,0,1,27.36371,24.54944Z" transform="translate(-4.65454 -1.97101)"/><path class="cls-4" d="M57.42657,1.971a31.23976,31.23976,0,0,0-20.82293,7.9389,31.55755,31.55755,0,0,0-2.6557,2.67084q.55362.6276,1.072,1.28577c.11371.14367.22021.293.33148.43872.19324.25311.39026.50311.57587.7622.02874.04016.05389.08307.08246.12336q.48192.67941.92639,1.386c.03894.06159.08282.11963.12134.18152l.00964.017c.38617.62122.74408,1.26117,1.08685,1.91046.09461.17914.18439.36066.27558.54181q.39477.78443.746,1.59332c.04846.11164.10718.21753.15442.32984.0238.05658.04266.11566.0661.17236.16119.38983.30835.7865.4541,1.18408.07111.194.14886.38465.21625.58045.2055.59716.396,1.20129.56585,1.81427a31.07833,31.07833,0,0,0,4.55207-1.21869,31.20722,31.20722,0,0,0,8.01147-4.20349A31.34557,31.34557,0,0,0,64.88043,2.87122,31.35912,31.35912,0,0,0,57.42657,1.971Z" transform="translate(-4.65454 -1.97101)"/><path class="cls-5" d="M27.81183,23.15106c.2052-.60046.42486-1.19409.66485-1.7774.01136-.02753.02-.05646.03138-.08393l.00506-.01123c.24213-.58307.50421-1.15545.77991-1.72009.01782-.0365.03247-.07471.05041-.11114.11316-.2295.23877-.45148.35737-.6778.12439-.23737.24456-.47711.37481-.71082.01959-.03515.03668-.07189.0564-.10693.18262-.32471.37732-.64148.571-.95886.06861-.11243.13233-.22821.2024-.33972l.0205-.03449q.35157-.55829.72583-1.10058c.03864-.056.07966-.11.1186-.16571.05828-.08332.1184-.1651.17749-.24787.11077-.15515.2193-.312.33288-.465.12116-.16321.24951-.32062.37372-.48139.10419-.13476.20691-.27038.31317-.40338.04987-.06238.09662-.12726.14691-.18921q.225-.27731.45636-.54938.11838-.13924.23841-.27722.06912-.07927.13861-.15814a31.54774,31.54774,0,0,0-3.98065-3.78912,31.343,31.343,0,0,0-5.62854-3.584A31.141,31.141,0,0,0,10.4693,1.971a31.441,31.441,0,0,0-5.81476.54773,31.23288,31.23288,0,0,0,6.42291,12.02087,31.41524,31.41524,0,0,0,9.14563,7.29889,31.08815,31.08815,0,0,0,7.14063,2.71094q.17624-.60837.37634-1.20642C27.76178,23.278,27.78967,23.21588,27.81183,23.15106Z" transform="translate(-4.65454 -1.97101)"/><path d="M39.85022,22.5072c-.14575-.39752-.29291-.79431-.4541-1.18408-.02344-.0567-.0423-.11578-.0661-.17236-.04724-.11231-.106-.2182-.15442-.32984q-.35129-.80877-.746-1.59332c-.09119-.18115-.181-.36267-.27558-.54181-.34271-.64923-.70074-1.28924-1.08685-1.91046l-.00964-.017c-.03852-.06189-.0824-.11993-.12134-.18152q-.446-.7054-.92639-1.386c-.02857-.04029-.05372-.0832-.08246-.12336-.18561-.25909-.38263-.50909-.57587-.7622-.11121-.14563-.21777-.29511-.33148-.43872q-.51984-.65671-1.072-1.28577-.06959.07883-.13861.15814-.12.13788-.23841.27722-.23126.2721-.45636.54938c-.05029.06195-.097.12683-.14691.18921-.10626.13293-.209.26862-.31317.40338-.12421.16077-.25256.31818-.37372.48139-.11358.153-.22211.30987-.33288.465-.05909.08264-.11921.16455-.17749.24787-.03894.05566-.08.10974-.1186.16571q-.37418.54217-.72583,1.10058l-.0205.03449c-.07007.11157-.13373.22729-.2024.33972-.19372.31738-.38842.63415-.571.95886-.01972.035-.03681.07178-.0564.10693-.13025.23371-.25042.47352-.37481.71082-.1186.22632-.24421.4483-.35737.6778-.01794.03643-.03259.07464-.05041.11114-.27576.56451-.53778,1.137-.77991,1.72009l-.00506.01123c-.01142.02747-.02.0564-.03138.08393-.23992.58331-.45965,1.17694-.66485,1.7774-.02216.06482-.05.12689-.07178.192q-.19995.59793-.37634,1.20642a31.36219,31.36219,0,0,0,7.45379.90021,31.44818,31.44818,0,0,0,5.81482-.54773c-.1698-.613-.36035-1.21711-.56585-1.81427C39.99908,22.89185,39.92133,22.70123,39.85022,22.5072Z" transform="translate(-4.65454 -1.97101)"/></svg>