<svg width="92" height="78" viewBox="0 0 92 78" fill="none" xmlns="http://www.w3.org/2000/svg">
<rect width="78" height="78" rx="39" fill="#66B5C3"/>
<path d="M39 46.3125C30.8648 46.3125 12.1875 50.1231 12.1875 57.6875C12.1875 65.8125 26.8125 73.125 39 73.125C51.1875 73.125 65.8125 65.8125 65.8125 57.6875C65.8125 50.1231 47.1352 46.3125 39 46.3125Z" fill="#C7E9EF"/>
<path d="M39 41.4375C45.7336 41.4375 51.1875 35.9836 51.1875 29.25C51.1875 22.5164 45.7336 17.0625 39 17.0625C32.2664 17.0625 26.8125 22.5164 26.8125 29.25C26.8125 35.9836 32.2664 41.4375 39 41.4375Z" fill="#C7E9EF"/>
<path fill-rule="evenodd" clip-rule="evenodd" d="M77.5 78C69.4919 78 63 71.5081 63 63.5C63 55.4919 69.4919 49 77.5 49C85.5081 49 92 55.4919 92 63.5C92 71.5081 85.5081 78 77.5 78ZM75.2384 70.7008L69.7701 65.2325C67.8368 63.2992 70.5709 60.5651 72.5043 62.4984L75.32 65.3141L82.1553 58.4788C84.0887 56.5454 86.7413 59.198 84.8079 61.1313L75.2384 70.7008Z" fill="#147633"/>
</svg>
