<svg width="150" height="50" viewBox="0 0 150 50" fill="none" xmlns="http://www.w3.org/2000/svg">
<path d="M88.7319 13.6858C88.7956 13.88 88.8234 14.0863 88.814 14.2926C88.8045 14.4989 88.7578 14.701 88.6766 14.887C88.5955 15.073 88.4815 15.2391 88.3415 15.3755C88.2014 15.5119 88.038 15.6159 87.861 15.6813C87.6876 15.7571 87.5022 15.7938 87.3158 15.7891C87.1293 15.7843 86.9456 15.7383 86.7755 15.6538C86.6054 15.5692 86.4523 15.4478 86.3252 15.2966C86.1981 15.1455 86.0997 14.9677 86.0356 14.7738L81.8726 6.62718C81.8726 6.62718 79.2043 1.66703 82.8039 0.223331C86.2871 -1.17912 87.2185 4.48225 87.2185 4.48225L88.7319 13.6858Z" fill="#8B61AE"/>
<path d="M95.4845 12.275C95.4845 12.275 95.216 13.8158 93.7617 13.8158C92.3074 13.8158 92.0388 12.275 92.0388 12.275L90.9201 4.62238C90.9201 4.62238 89.863 2.13873e-10 93.7617 -6.86164e-10C97.5596 -1.56296e-09 96.6032 4.62238 96.6032 4.62238L95.4845 12.275Z" fill="#4E9A73"/>
<path d="M100.737 13.2927C100.737 13.2927 100.147 14.0775 99.2798 13.7245C98.4128 13.3716 98.7479 12.4753 98.7479 12.4753L99.8117 8.29577C99.8117 8.29577 100.652 5.04501 103.354 6.15027C105.918 7.19516 103.748 9.89794 103.748 9.89794L100.737 13.2927Z" fill="#66B5C3"/>
<path d="M82.6272 15.9779C82.6272 15.9779 83.2493 16.8112 82.5963 17.4646C81.9433 18.1179 81.1105 17.4954 81.1105 17.4954L76.7504 14.5838C76.7504 14.5838 73.6657 12.5775 75.6863 10.5558C77.7068 8.53413 79.7171 11.6155 79.7171 11.6155L82.6272 15.9779Z" fill="#F0411D"/>
<path d="M52.7107 21.9538L52.7107 40.9109C52.7107 41.1663 52.6091 41.4112 52.4282 41.5918C52.2473 41.7724 52.0019 41.8739 51.746 41.8739L46.9226 41.8739C46.7769 41.8742 46.633 41.8415 46.5018 41.7783C46.3706 41.7151 46.2553 41.6231 46.1648 41.5091C46.0743 41.3951 46.0109 41.2621 45.9792 41.1202C45.9475 40.9782 45.9485 40.8309 45.982 40.6894L46.1894 39.7938C44.8244 41.4116 42.2872 42.2013 39.533 42.2013C37.7158 42.2235 35.9251 41.7649 34.343 40.8723C32.7771 39.9782 31.4937 38.6637 30.6386 37.078C29.6999 35.3264 29.2281 33.3631 29.2687 31.377C29.2257 29.3967 29.6978 27.4391 30.6386 25.6951C31.4952 24.1193 32.779 22.816 34.343 21.9346C35.9293 21.0546 37.7183 20.6031 39.533 20.6248C42.0026 20.6248 44.4288 21.3471 45.8421 22.7868L45.6829 22.1849C45.6444 22.0423 45.6393 21.8926 45.6681 21.7477C45.6968 21.6027 45.7586 21.4663 45.8486 21.349C45.9386 21.2317 46.0545 21.1366 46.1872 21.0712C46.3199 21.0057 46.4659 20.9716 46.6139 20.9715L51.746 20.9715C51.8743 20.9715 52.0014 20.997 52.1197 21.0466C52.238 21.0962 52.3452 21.1689 52.435 21.2604C52.5249 21.3518 52.5956 21.4603 52.6429 21.5794C52.6902 21.6984 52.7133 21.8257 52.7107 21.9538ZM35.3849 11.8421L48.6591 11.8421C48.9149 11.8421 49.1602 11.9436 49.3411 12.1242C49.522 12.3048 49.6237 12.5497 49.6237 12.8051L49.6237 15.1212C49.6237 15.3766 49.522 15.6215 49.3411 15.8021C49.1602 15.9827 48.9149 16.0842 48.6591 16.0842L35.3946 16.0842C35.1387 16.0842 34.8933 15.9827 34.7124 15.8021C34.5315 15.6215 34.4299 15.3766 34.4299 15.1212L34.4299 12.8051C34.4299 12.5497 34.5315 12.3048 34.7124 12.1242C34.8933 11.9436 35.1387 11.8421 35.3946 11.8421L35.3849 11.8421ZM44.2697 35.0846C45.0961 34.1986 45.5077 32.9724 45.5045 31.4059C45.5828 30.0842 45.1395 28.7844 44.2697 27.7849C43.8544 27.3697 43.3611 27.0403 42.8182 26.8155C42.2752 26.5908 41.6932 26.4751 41.1055 26.4751C40.5177 26.4751 39.9357 26.5908 39.3927 26.8155C38.8498 27.0403 38.3565 27.3697 37.9412 27.7849C37.0714 28.7844 36.6283 30.0842 36.7065 31.4059C36.7065 32.9724 37.118 34.1986 37.9412 35.0846C38.3542 35.5039 38.8468 35.8369 39.39 36.0642C39.9333 36.2915 40.5164 36.4086 41.1055 36.4086C41.6945 36.4086 42.2777 36.2915 42.821 36.0642C43.3642 35.8369 43.8567 35.5039 44.2697 35.0846Z" fill="#334158"/>
<path d="M75.2505 21.9731C76.8121 22.8642 78.0946 24.1712 78.9549 25.7481C79.8536 27.5086 80.3221 29.4564 80.3221 31.4323C80.3221 33.4082 79.8536 35.3561 78.9549 37.1166C78.0946 38.6934 76.8121 40.0005 75.2505 40.8916C73.6684 41.7842 71.8777 42.2427 70.0605 42.2206C67.6198 42.2206 65.6775 41.4887 64.2337 40.0249L64.2337 48.3791C64.2337 48.6345 64.1321 48.8794 63.9512 49.06C63.7703 49.2406 63.5249 49.3421 63.269 49.3421L57.8668 49.3421C57.6109 49.3421 57.3656 49.2406 57.1847 49.06C57.0038 48.8794 56.9021 48.6345 56.9021 48.3791L56.9021 21.9538C56.9021 21.6984 57.0038 21.4535 57.1847 21.2729C57.3656 21.0923 57.6109 20.9908 57.8668 20.9908L62.6902 20.9908C62.838 20.9868 62.9846 21.0168 63.1189 21.0784C63.2532 21.14 63.3715 21.2315 63.4647 21.346C63.558 21.4604 63.6236 21.5947 63.6566 21.7385C63.6896 21.8823 63.689 22.0318 63.6549 22.1753L63.4427 23.0709C64.8078 21.453 67.3498 20.6634 70.0991 20.6634C71.9015 20.6421 73.6779 21.0938 75.2505 21.9731ZM71.6812 35.075C72.4823 34.0299 72.9163 32.7506 72.9163 31.4347C72.9163 30.1188 72.4823 28.8396 71.6812 27.7945C71.2689 27.3741 70.7766 27.04 70.2332 26.8119C69.6899 26.5839 69.1064 26.4664 68.517 26.4664C67.9276 26.4664 67.3441 26.5839 66.8008 26.8119C66.2574 27.04 65.7651 27.3741 65.3528 27.7945C64.5517 28.8396 64.1176 30.1188 64.1176 31.4347C64.1176 32.7506 64.5517 34.0299 65.3528 35.075C65.7658 35.4942 66.2583 35.8273 66.8016 36.0546C67.3448 36.2819 67.928 36.399 68.517 36.399C69.1061 36.399 69.6892 36.2819 70.2324 36.0546C70.7757 35.8273 71.2682 35.4942 71.6812 35.075Z" fill="#334158"/>
<path d="M106.357 21.9538L106.357 40.9109C106.357 41.1663 106.256 41.4112 106.075 41.5918C105.894 41.7724 105.648 41.8739 105.393 41.8739L100.569 41.8739C100.424 41.8734 100.281 41.8402 100.15 41.7767C100.019 41.7132 99.9047 41.6211 99.8148 41.5072C99.7248 41.3933 99.6617 41.2606 99.6303 41.119C99.5989 40.9774 99.6 40.8305 99.6334 40.6894L99.8408 39.7938C98.4757 41.4116 95.9386 42.2013 93.1844 42.2013C91.3672 42.2235 89.5765 41.7649 87.9944 40.8723C86.4285 39.9782 85.1451 38.6637 84.29 37.078C83.35 35.3268 82.8782 33.3633 82.9201 31.377C82.8747 29.3964 83.3469 27.4382 84.29 25.6951C85.1466 24.1193 86.4304 22.816 87.9944 21.9345C89.5807 21.0546 91.3697 20.6031 93.1844 20.6248C95.654 20.6248 98.0754 21.3471 99.4935 22.7868L99.3343 22.1849C99.2958 22.0423 99.2907 21.8926 99.3195 21.7477C99.3482 21.6027 99.41 21.4663 99.5 21.349C99.59 21.2317 99.7058 21.1366 99.8385 21.0712C99.9712 21.0057 100.117 20.9716 100.265 20.9715L105.378 20.9715C105.508 20.9696 105.636 20.9937 105.756 21.0424C105.876 21.0911 105.985 21.1635 106.077 21.2552C106.168 21.3468 106.24 21.4559 106.288 21.576C106.336 21.696 106.36 21.8245 106.357 21.9538ZM97.9066 35.0846C98.733 34.1986 99.1446 32.9724 99.1414 31.4059C99.2197 30.0842 98.7764 28.7844 97.9066 27.7849C97.4913 27.3697 96.9981 27.0403 96.4552 26.8155C95.9122 26.5908 95.3301 26.4751 94.7424 26.4751C94.1546 26.4751 93.5726 26.5908 93.0296 26.8155C92.4867 27.0403 91.9936 27.3697 91.5783 27.7849C90.7084 28.7844 90.2652 30.0842 90.3434 31.4059C90.3434 32.9724 90.7551 34.1986 91.5783 35.0846C91.9913 35.5039 92.4837 35.8369 93.0269 36.0642C93.5702 36.2915 94.1533 36.4086 94.7424 36.4086C95.3314 36.4086 95.9146 36.2915 96.4579 36.0642C97.0011 35.8369 97.4936 35.5039 97.9066 35.0846Z" fill="#334158"/>
<path d="M120.962 21.3615C121.946 20.9791 122.982 20.7501 124.035 20.6826C124.168 20.6727 124.301 20.6902 124.426 20.7341C124.552 20.778 124.667 20.8474 124.764 20.9378C124.862 21.0283 124.939 21.1378 124.992 21.2596C125.045 21.3814 125.072 21.5129 125.072 21.6456L125.072 26.1767C125.072 26.309 125.045 26.44 124.993 26.5614C124.94 26.6829 124.863 26.7922 124.766 26.8826C124.669 26.973 124.555 27.0424 124.43 27.0867C124.305 27.1309 124.172 27.1489 124.04 27.1397C123.808 27.1397 123.601 27.1397 123.413 27.1397C121.84 27.1397 120.615 27.5634 119.728 28.4109C118.84 29.2583 118.396 30.5536 118.396 32.3015L118.396 40.9109C118.396 41.1663 118.295 41.4112 118.114 41.5918C117.933 41.7724 117.688 41.8739 117.432 41.8739L112.039 41.8739C111.783 41.8739 111.538 41.7724 111.357 41.5918C111.176 41.4112 111.074 41.1663 111.074 40.9109L111.074 21.9538C111.074 21.6984 111.176 21.4534 111.357 21.2728C111.538 21.0922 111.783 20.9908 112.039 20.9908L117.094 20.9908C117.35 20.9908 117.595 21.0922 117.776 21.2728C117.957 21.4534 118.059 21.6984 118.059 21.9538L118.059 23.4946C118.816 22.5351 119.82 21.798 120.962 21.3615Z" fill="#334158"/>
<path d="M150 21.9538L150 40.9109C150 41.1663 149.898 41.4112 149.717 41.5918C149.536 41.7724 149.291 41.8739 149.035 41.8739L144.212 41.8739C144.066 41.8734 143.923 41.8402 143.792 41.7767C143.662 41.7132 143.547 41.6211 143.457 41.5072C143.367 41.3933 143.304 41.2606 143.273 41.119C143.241 40.9774 143.243 40.8305 143.276 40.6894L143.483 39.7938C142.118 41.4116 139.576 42.2013 136.827 42.2013C135.01 42.2242 133.219 41.7656 131.637 40.8724C130.071 39.9782 128.788 38.6637 127.933 37.0781C126.993 35.3268 126.521 33.3633 126.563 31.377C126.517 29.3964 126.989 27.4382 127.933 25.6952C128.789 24.1193 130.073 22.816 131.637 21.9346C133.223 21.054 135.012 20.6025 136.827 20.6248C139.297 20.6248 141.723 21.3471 143.136 22.7868L142.977 22.1849C142.938 22.0423 142.933 21.8926 142.962 21.7477C142.991 21.6027 143.053 21.4663 143.143 21.349C143.233 21.2317 143.348 21.1366 143.481 21.0712C143.614 21.0057 143.76 20.9716 143.908 20.9715L149.021 20.9715C149.15 20.9696 149.279 20.9937 149.399 21.0424C149.519 21.0911 149.628 21.1635 149.719 21.2552C149.811 21.3468 149.882 21.4559 149.931 21.576C149.979 21.696 150.002 21.8245 150 21.9538ZM141.549 35.0846C142.419 34.0623 142.861 32.7449 142.784 31.4059C142.86 30.0844 142.417 28.7854 141.549 27.7849C141.134 27.3697 140.641 27.0403 140.098 26.8155C139.555 26.5908 138.973 26.4751 138.385 26.4751C137.797 26.4751 137.215 26.5908 136.672 26.8155C136.129 27.0403 135.636 27.3697 135.221 27.7849C134.351 28.7844 133.908 30.0842 133.986 31.4059C133.986 32.9724 134.398 34.1986 135.221 35.0846C135.634 35.5039 136.126 35.8369 136.669 36.0642C137.213 36.2915 137.796 36.4086 138.385 36.4086C138.974 36.4086 139.557 36.2915 140.1 36.0642C140.644 35.8369 141.136 35.5039 141.549 35.0846Z" fill="#334158"/>
<path d="M25.6994 12.9793L25.6994 40.9068C25.6994 41.1623 25.5978 41.4072 25.4169 41.5878C25.2359 41.7684 24.9905 41.8699 24.7347 41.8699L19.0237 41.8699C18.7678 41.8699 18.5225 41.7684 18.3416 41.5878C18.1607 41.4072 18.059 41.1623 18.059 40.9068L18.059 29.9092L7.64039 29.9092L7.64039 40.9068C7.64039 41.1623 7.53868 41.4072 7.35777 41.5878C7.17685 41.7684 6.93155 41.8699 6.6757 41.8699L0.96469 41.8699C0.708839 41.8699 0.463539 41.7684 0.282624 41.5878C0.10171 41.4072 -6.08919e-09 41.1623 -6.03837e-09 40.9068L-4.80651e-10 12.9793C-4.29824e-10 12.7238 0.10171 12.4789 0.282624 12.2983C0.463539 12.1177 0.708839 12.0162 0.96469 12.0162L6.6757 12.0162C6.93155 12.0162 7.17685 12.1177 7.35777 12.2983C7.53868 12.4789 7.64039 12.7238 7.64039 12.9793L7.64039 23.5725L18.059 23.5725L18.059 12.9793C18.059 12.7238 18.1607 12.4789 18.3416 12.2983C18.5225 12.1177 18.7678 12.0162 19.0237 12.0162L24.7347 12.0162C24.9905 12.0162 25.2359 12.1177 25.4169 12.2983C25.5978 12.4789 25.6994 12.7238 25.6994 12.9793Z" fill="#334158"/>
</svg>
