<svg width="74" height="46" viewBox="0 0 74 46" fill="none" xmlns="http://www.w3.org/2000/svg">
<path d="M34.454 32.8953C34.6312 33.362 34.709 33.8578 34.6826 34.3537C34.6562 34.8495 34.5263 35.3353 34.3004 35.7823C34.0746 36.2294 33.7573 36.6286 33.3675 36.9565C32.9777 37.2844 32.5233 37.5343 32.0308 37.6915C31.5474 37.8736 31.0306 37.9611 30.5112 37.9489C29.9918 37.9368 29.4801 37.8251 29.0066 37.6206C28.5331 37.4161 28.1072 37.1229 27.7541 36.7583C27.4011 36.3937 27.1281 35.9651 26.9512 35.4979L15.3667 15.9291C15.3667 15.9291 7.94174 3.99449 17.9584 0.536798C27.651 -2.83414 30.2296 10.7735 30.2296 10.7735L34.454 32.8953Z" fill="#8B61AE"/>
<path d="M50.5545 31.8038C50.5545 31.8038 49.9659 35.6499 46.8547 35.6499C43.7435 35.6499 43.1548 31.8038 43.1548 31.8038L40.7523 12.6884C40.7523 12.6884 38.4701 1.1499 46.8547 1.1499C55.0112 1.1499 52.957 12.6884 52.957 12.6884L50.5545 31.8038Z" fill="#4E9A73"/>
<path d="M64.8975 36.5538C64.5532 37.1325 64.0243 37.5698 63.4014 37.7908C62.7784 38.0117 62.1002 38.0026 61.483 37.765C59.582 36.8502 60.2323 34.286 60.2323 34.286L62.7337 22.6891C62.7337 22.6891 64.7099 13.6694 71.0634 16.7361C77.0792 19.6353 71.9889 27.1346 71.9889 27.1346L64.8975 36.5538Z" fill="#66B5C3"/>
<path d="M17.8643 41.6118C17.8643 41.6118 19.3343 43.6698 17.804 45.2832C16.2736 46.8965 14.3214 45.2832 14.3214 45.2832L4.10275 38.1055C4.10275 38.1055 -3.12738 33.1384 1.6084 28.1458C6.34417 23.1532 11.0558 30.7755 11.0558 30.7755L17.8643 41.6118Z" fill="#F0411D"/>
</svg>
