<svg width="92" height="78" viewBox="0 0 92 78" fill="none" xmlns="http://www.w3.org/2000/svg">
<rect width="78" height="78" rx="39" fill="#F18053"/>
<mask id="mask0" mask-type="alpha" maskUnits="userSpaceOnUse" x="4" y="4" width="70" height="70">
<rect x="4.875" y="4.875" width="68.25" height="68.25" rx="34.125" fill="#FDE1D7"/>
</mask>
<g mask="url(#mask0)">
<path d="M26.8328 41.4375C33.5879 41.4375 39 35.9937 39 29.25C39 22.5063 33.5879 17.0625 26.8328 17.0625C20.0778 17.0625 14.625 22.5063 14.625 29.25C14.625 35.9937 20.0778 41.4375 26.8328 41.4375Z" fill="#FDE1D7"/>
<path d="M24.375 46.3125C2.4375 46.3125 -4.875 53.625 -4.875 60.5312V70.6875L24.375 78H53.625V60.5312C53.625 53.625 41.4375 46.3125 24.375 46.3125Z" fill="#FDE1D7"/>
<path d="M57.2996 41.4375C63.3791 41.4375 68.25 36.5381 68.25 30.4688C68.25 24.3994 63.3791 19.5 57.2996 19.5C51.2201 19.5 46.3125 24.3994 46.3125 30.4688C46.3125 36.5381 51.2201 41.4375 57.2996 41.4375Z" fill="#FDE1D7"/>
<path d="M49.5758 46.127C48.6001 46.127 47.49 46.2012 46.3125 46.3127C51.1875 47.5325 58.5 52.6385 58.5 57.2814L58.4998 73.1241L77.9996 73.1241V56.5259C77.9996 47.8716 63.375 46.1269 49.5758 46.127Z" fill="#FDE1D7"/>
</g>
<path fill-rule="evenodd" clip-rule="evenodd" d="M77.5 78C85.5081 78 92 71.5081 92 63.5C92 55.4919 85.5081 49 77.5 49C69.4919 49 63 55.4919 63 63.5C63 71.5081 69.4919 78 77.5 78ZM77.5 72.5625C78.501 72.5625 79.3125 71.751 79.3125 70.75C79.3125 69.749 78.501 68.9375 77.5 68.9375C76.499 68.9375 75.6875 69.749 75.6875 70.75C75.6875 71.751 76.499 72.5625 77.5 72.5625ZM75.6875 56.25C75.6875 55.249 76.499 54.4375 77.5 54.4375C78.501 54.4375 79.3125 55.249 79.3125 56.25V63.5C79.3125 64.501 78.501 65.3125 77.5 65.3125C76.499 65.3125 75.6875 64.501 75.6875 63.5V56.25Z" fill="#D73842"/>
</svg>
