<svg width="78" height="78" viewBox="0 0 78 78" fill="none" xmlns="http://www.w3.org/2000/svg">
<path fill-rule="evenodd" clip-rule="evenodd" d="M39 78C60.5391 78 78 60.5391 78 39C78 17.4609 60.5391 0 39 0C17.4609 0 0 17.4609 0 39C0 60.5391 17.4609 78 39 78ZM39 63.375C41.6924 63.375 43.875 61.1924 43.875 58.5C43.875 55.8076 41.6924 53.625 39 53.625C36.3076 53.625 34.125 55.8076 34.125 58.5C34.125 61.1924 36.3076 63.375 39 63.375ZM34.125 19.5C34.125 16.8076 36.3076 14.625 39 14.625C41.6924 14.625 43.875 16.8076 43.875 19.5V39C43.875 41.6924 41.6924 43.875 39 43.875C36.3076 43.875 34.125 41.6924 34.125 39V19.5Z" fill="#D73842"/>
</svg>
