<svg width="92" height="78" viewBox="0 0 92 78" fill="none" xmlns="http://www.w3.org/2000/svg">
<rect width="78" height="78" rx="39" fill="#ADADB2"/>
<path d="M39 46.3125C30.8648 46.3125 12.1875 50.1231 12.1875 57.6875C12.1875 65.8125 26.8125 73.125 39 73.125C51.1875 73.125 65.8125 65.8125 65.8125 57.6875C65.8125 50.1231 47.1352 46.3125 39 46.3125Z" fill="#EBEBEC"/>
<path d="M39 41.4375C45.7336 41.4375 51.1875 35.9836 51.1875 29.25C51.1875 22.5164 45.7336 17.0625 39 17.0625C32.2664 17.0625 26.8125 22.5164 26.8125 29.25C26.8125 35.9836 32.2664 41.4375 39 41.4375Z" fill="#EBEBEC"/>
<path fill-rule="evenodd" clip-rule="evenodd" d="M77.5 78C85.5081 78 92 71.5081 92 63.5C92 55.4919 85.5081 49 77.5 49C69.4919 49 63 55.4919 63 63.5C63 71.5081 69.4919 78 77.5 78ZM77.5 72.5625C78.501 72.5625 79.3125 71.751 79.3125 70.75C79.3125 69.749 78.501 68.9375 77.5 68.9375C76.499 68.9375 75.6875 69.749 75.6875 70.75C75.6875 71.751 76.499 72.5625 77.5 72.5625ZM75.6875 56.25C75.6875 55.249 76.499 54.4375 77.5 54.4375C78.501 54.4375 79.3125 55.249 79.3125 56.25V63.5C79.3125 64.501 78.501 65.3125 77.5 65.3125C76.499 65.3125 75.6875 64.501 75.6875 63.5V56.25Z" fill="#D73842"/>
</svg>
