<svg width="14" height="14" viewBox="0 0 14 14" fill="none" xmlns="http://www.w3.org/2000/svg">
<path fill-rule="evenodd" clip-rule="evenodd" d="M9.32493 13.1343V12.2745C10.017 12.0517 10.4905 11.6562 10.8158 11.2353L12.0052 11.922C12.2571 12.0674 12.8382 12.2686 13.5784 10.9425C14.3186 9.61633 13.9131 9.13724 13.6477 8.98405L12.5923 8.3747C12.6972 7.95107 12.7528 7.50802 12.7528 7.05198C12.7528 6.64668 12.7089 6.25164 12.6255 5.87138L13.5241 5.35255C13.5375 5.34484 13.5517 5.33703 13.5665 5.3289C13.8197 5.18977 14.2427 4.95741 13.4363 3.52382C12.5842 2.00894 12.1066 2.28467 11.8751 2.41837L10.9271 2.9657C10.8171 2.86717 10.7173 2.77302 10.6225 2.68351C10.2295 2.31269 9.92097 2.02152 9.32493 1.82961V0.88523C9.32493 0.590216 9.07328 0 7 0C4.92672 0 4.66246 0.590091 4.66246 0.885043V1.82961C3.92247 2.06786 3.45514 2.45884 2.88959 2.9657L1.966 2.43247C1.7271 2.29454 1.13949 2.17061 0.420258 3.45465C-0.298973 4.73868 0.0695849 5.22383 0.321121 5.36905L1.19118 5.87138C1.10777 6.25164 1.06382 6.64668 1.06382 7.05198C1.06382 7.57802 1.13786 8.08676 1.2761 8.56836L0.505259 9.01341C0.256875 9.15681 -0.0946152 9.69936 0.613646 10.922C1.32191 12.1446 1.9425 12.0699 2.1923 11.9256C2.51524 11.7392 3.22925 11.263 3.22925 11.263C3.3717 11.375 3.49815 11.4884 3.62033 11.5979C3.93094 11.8764 4.214 12.1301 4.66246 12.2745V13.1132C4.66246 13.3477 4.86652 13.9874 6.99369 13.9874C9.12087 13.9874 9.32493 13.3506 9.32493 13.1343ZM3.99459 6.99369C3.99459 8.65055 5.33774 9.99369 6.99459 9.99369C8.65144 9.99369 9.99459 8.65055 9.99459 6.99369C9.99459 5.33684 8.65144 3.99369 6.99459 3.99369C5.33774 3.99369 3.99459 5.33684 3.99459 6.99369Z" fill="black"/>
</svg>
